{"asset":{"version":"2.0","generator":"THREE.GLTFExporter"},"scenes":[{"nodes":[1]}],"scene":0,"nodes":[{"matrix":[2.0671684741973877,0,0,0,0,2.0671684741973877,0,0,0,0,2.0671684741973877,0,-1.1974225044250488,34.067142486572266,105.00808715820312,1],"name":"棱角球001","extras":{"name":"棱角球.001"},"mesh":0},{"children":[0]}],"bufferViews":[{"buffer":0,"byteOffset":0,"byteLength":2880,"target":34962,"byteStride":12},{"buffer":0,"byteOffset":2880,"byteLength":2880,"target":34962,"byteStride":12},{"buffer":0,"byteOffset":5760,"byteLength":1920,"target":34962,"byteStride":8},{"buffer":0,"byteOffset":7680,"byteLength":960,"target":34963}],"buffers":[{"byteLength":8640,"uri":"data:application/octet-stream;base64,"}],"accessors":[{"bufferView":0,"componentType":5126,"count":240,"max":[0.9510357975959778,1,1],"min":[-0.9510578513145447,-1,-0.9999999403953552],"type":"VEC3"},{"bufferView":1,"componentType":5126,"count":240,"max":[0.9922103881835938,0.9437225461006165,0.9434341192245483],"min":[-0.9922104477882385,-0.9437226057052612,-0.9434341192245483],"type":"VEC3"},{"bufferView":2,"componentType":5126,"count":240,"max":[1,0.999901294708252],"min":[0,0.5276179909706116],"type":"VEC2"},{"bufferView":3,"componentType":5125,"count":240,"max":[239],"min":[0],"type":"SCALAR"}],"materials":[{"pbrMetallicRoughness":{"baseColorFactor":[0.800000011920929,0.800000011920929,0.800000011920929,1],"metallicFactor":0,"roughnessFactor":0.5},"emissiveFactor":[1,1,1],"doubleSided":true,"name":"发光材质"}],"meshes":[{"primitives":[{"mode":4,"attributes":{"POSITION":0,"NORMAL":1,"TEXCOORD_0":2},"indices":3,"material":0}]}]}