{"asset":{"version":"2.0","generator":"THREE.GLTFExporter"},"scenes":[{"nodes":[9]}],"scene":0,"nodes":[{"name":"G-ant_01_1","mesh":0},{"name":"G-ant_01_2","mesh":1},{"name":"G-ant_01_3","mesh":2},{"name":"G-ant_01_4","mesh":3},{"name":"G-ant_01_5","mesh":4},{"name":"G-ant_01_6","mesh":5},{"name":"G-ant_01_7","mesh":6},{"name":"G-ant_01_8","mesh":7},{"matrix":[7.181259632110596,0,0,0,0,7.181259632110596,0,0,0,0,7.181259632110596,0,55.38520812988281,30,-152.28990173339844,1],"name":"G-ant_01017","extras":{"name":"G-ant_01.017"},"children":[0,1,2,3,4,5,6,7]},{"children":[8]}],"bufferViews":[{"buffer":0,"byteOffset":0,"byteLength":34356,"target":34962,"byteStride":12},{"buffer":0,"byteOffset":34356,"byteLength":34356,"target":34962,"byteStride":12},{"buffer":0,"byteOffset":68712,"byteLength":22904,"target":34962,"byteStride":8},{"buffer":0,"byteOffset":91616,"byteLength":57264,"target":34963},{"buffer":0,"byteOffset":148880,"byteLength":15372,"target":34962,"byteStride":12},{"buffer":0,"byteOffset":164252,"byteLength":15372,"target":34962,"byteStride":12},{"buffer":0,"byteOffset":179624,"byteLength":10248,"target":34962,"byteStride":8},{"buffer":0,"byteOffset":189872,"byteLength":25716,"target":34963},{"buffer":0,"byteOffset":215588,"byteLength":8004,"target":34962,"byteStride":12},{"buffer":0,"byteOffset":223592,"byteLength":8004,"target":34962,"byteStride":12},{"buffer":0,"byteOffset":231596,"byteLength":5336,"target":34962,"byteStride":8},{"buffer":0,"byteOffset":236932,"byteLength":12972,"target":34963},{"buffer":0,"byteOffset":249904,"byteLength":5136,"target":34962,"byteStride":12},{"buffer":0,"byteOffset":255040,"byteLength":5136,"target":34962,"byteStride":12},{"buffer":0,"byteOffset":260176,"byteLength":3424,"target":34962,"byteStride":8},{"buffer":0,"byteOffset":263600,"byteLength":3768,"target":34963},{"buffer":0,"byteOffset":267368,"byteLength":16728,"target":34962,"byteStride":12},{"buffer":0,"byteOffset":284096,"byteLength":16728,"target":34962,"byteStride":12},{"buffer":0,"byteOffset":300824,"byteLength":11152,"target":34962,"byteStride":8},{"buffer":0,"byteOffset":311976,"byteLength":15612,"target":34963},{"buffer":0,"byteOffset":327588,"byteLength":2712,"target":34962,"byteStride":12},{"buffer":0,"byteOffset":330300,"byteLength":2712,"target":34962,"byteStride":12},{"buffer":0,"byteOffset":333012,"byteLength":1808,"target":34962,"byteStride":8},{"buffer":0,"byteOffset":334820,"byteLength":2328,"target":34963},{"buffer":0,"byteOffset":337148,"byteLength":29136,"target":34962,"byteStride":12},{"buffer":0,"byteOffset":366284,"byteLength":29136,"target":34962,"byteStride":12},{"buffer":0,"byteOffset":395420,"byteLength":19424,"target":34962,"byteStride":8},{"buffer":0,"byteOffset":414844,"byteLength":56424,"target":34963},{"buffer":0,"byteOffset":471268,"byteLength":15504,"target":34962,"byteStride":12},{"buffer":0,"byteOffset":486772,"byteLength":15504,"target":34962,"byteStride":12},{"buffer":0,"byteOffset":502276,"byteLength":10336,"target":34962,"byteStride":8},{"buffer":0,"byteOffset":512612,"byteLength":29904,"target":34963}],"buffers":[{"byteLength":542516,"uri":"data:application/octet-stream;base64,"}],"accessors":[{"bufferView":0,"componentType":5126,"count":2863,"max":[0.8941599726676941,1.9679323434829712,0.7783398032188416],"min":[-0.3688768744468689,0.5921123027801514,-0.3903891444206238],"type":"VEC3"},{"bufferView":1,"componentType":5126,"count":2863,"max":[0.9988470077514648,0.9994568824768066,0.9989901781082153],"min":[-0.9903951287269592,-0.9988584518432617,-0.9995151162147522],"type":"VEC3"},{"bufferView":2,"componentType":5126,"count":2863,"max":[0.4874855875968933,0.9789255857467651],"min":[0.02125616930425167,0.02859729528427124],"type":"VEC2"},{"bufferView":3,"componentType":5125,"count":14316,"max":[2862],"min":[0],"type":"SCALAR"},{"bufferView":4,"componentType":5126,"count":1281,"max":[0.5322195291519165,1.6276429891586304,0.6713458299636841],"min":[-0.36102959513664246,0.41036632657051086,-0.38833796977996826],"type":"VEC3"},{"bufferView":5,"componentType":5126,"count":1281,"max":[0.9997622966766357,0.9997389316558838,0.9959092140197754],"min":[-0.9720931649208069,-0.9923621416091919,-0.9999688863754272],"type":"VEC3"},{"bufferView":6,"componentType":5126,"count":1281,"max":[0.4873083531856537,0.9784421920776367],"min":[0.02131606452167034,0.02859729528427124],"type":"VEC2"},{"bufferView":7,"componentType":5125,"count":6429,"max":[1280],"min":[0],"type":"SCALAR"},{"bufferView":8,"componentType":5126,"count":667,"max":[0.23899269104003906,1.8231420516967773,0.08752918243408203],"min":[-0.3528168797492981,1.0026617050170898,-0.38663962483406067],"type":"VEC3"},{"bufferView":9,"componentType":5126,"count":667,"max":[0.9984567761421204,0.9558091163635254,0.9921898245811462],"min":[-0.9731389880180359,-0.8738544583320618,-0.9995318055152893],"type":"VEC3"},{"bufferView":10,"componentType":5126,"count":667,"max":[0.4873967468738556,0.9784151911735535],"min":[0.021649666130542755,0.02859729528427124],"type":"VEC2"},{"bufferView":11,"componentType":5125,"count":3243,"max":[666],"min":[0],"type":"SCALAR"},{"bufferView":12,"componentType":5126,"count":428,"max":[-0.03370581567287445,0.6252175569534302,-0.019865483045578003],"min":[-0.1833300143480301,0.37690988183021545,-0.21051812171936035],"type":"VEC3"},{"bufferView":13,"componentType":5126,"count":428,"max":[0.9964744448661804,0.9934477806091309,0.941741943359375],"min":[-0.9940302968025208,-0.980660617351532,-0.9495195150375366],"type":"VEC3"},{"bufferView":14,"componentType":5126,"count":428,"max":[408.0731506347656,401.6773376464844],"min":[-437.2815856933594,-451.8058166503906],"type":"VEC2"},{"bufferView":15,"componentType":5125,"count":942,"max":[427],"min":[0],"type":"SCALAR"},{"bufferView":16,"componentType":5126,"count":1394,"max":[0.29463279247283936,1.3860538005828857,0.24011415243148804],"min":[-0.22774749994277954,0.2938949465751648,-0.2658000588417053],"type":"VEC3"},{"bufferView":17,"componentType":5126,"count":1394,"max":[0.9995437860488892,0.9789004325866699,0.9998540878295898],"min":[-0.9998393654823303,-0.9845927357673645,-0.9998645186424255],"type":"VEC3"},{"bufferView":18,"componentType":5126,"count":1394,"max":[517.93359375,125.44503784179688],"min":[-676.6197509765625,-41.413211822509766],"type":"VEC2"},{"bufferView":19,"componentType":5125,"count":3903,"max":[1393],"min":[0],"type":"SCALAR"},{"bufferView":20,"componentType":5126,"count":226,"max":[-0.036334723234176636,1.3439124822616577,0.08722178637981415],"min":[-0.15577194094657898,0.3347634971141815,-0.2086917608976364],"type":"VEC3"},{"bufferView":21,"componentType":5126,"count":226,"max":[0.9962102174758911,0.34940361976623535,0.9988279938697815],"min":[-0.992395281791687,-0.6060835719108582,-0.9749283790588379],"type":"VEC3"},{"bufferView":22,"componentType":5126,"count":226,"max":[1,1],"min":[-1.7763568394002505e-15,0],"type":"VEC2"},{"bufferView":23,"componentType":5125,"count":582,"max":[225],"min":[0],"type":"SCALAR"},{"bufferView":24,"componentType":5126,"count":2428,"max":[0.1255170702934265,0.4011452794075012,0.16700974106788635],"min":[-0.3034902811050415,-1.550610129186225e-8,-0.2616572082042694],"type":"VEC3"},{"bufferView":25,"componentType":5126,"count":2428,"max":[0.9997217059135437,0.9999980926513672,0.9998710751533508],"min":[-0.9998734593391418,-1,-0.9999186992645264],"type":"VEC3"},{"bufferView":26,"componentType":5126,"count":2428,"max":[1.2743598222732544,0.9994953274726868],"min":[-0.016659855842590332,0.1662437915802002],"type":"VEC2"},{"bufferView":27,"componentType":5125,"count":14106,"max":[2427],"min":[0],"type":"SCALAR"},{"bufferView":28,"componentType":5126,"count":1292,"max":[0.11050018668174744,0.4241176247596741,0.1521148532629013],"min":[-0.2892218232154846,0.3598029613494873,-0.24694840610027313],"type":"VEC3"},{"bufferView":29,"componentType":5126,"count":1292,"max":[0.7648672461509705,0.9998948574066162,0.8240997791290283],"min":[-0.8066417574882507,0.49042925238609314,-0.8308338522911072],"type":"VEC3"},{"bufferView":30,"componentType":5126,"count":1292,"max":[0.9987006187438965,0.9999755024909973],"min":[0.0014855324989184737,0.00007450580596923828],"type":"VEC2"},{"bufferView":31,"componentType":5125,"count":7476,"max":[1291],"min":[0],"type":"SCALAR"}],"materials":[{"pbrMetallicRoughness":{"metallicFactor":0,"roughnessFactor":0.5,"baseColorTexture":{"index":0}},"doubleSided":true,"name":"www.3dsmj.com   Str_Nikol_flower_front_01"},{"pbrMetallicRoughness":{"metallicFactor":0,"roughnessFactor":0.5,"baseColorTexture":{"index":1}},"doubleSided":true,"name":"www.3dsmj.com   Str_Nikol_flower_front_03"},{"pbrMetallicRoughness":{"metallicFactor":0,"roughnessFactor":0.5,"baseColorTexture":{"index":2}},"doubleSided":true,"name":"www.3dsmj.com   Str_Nikol_flower_front_02"},{"pbrMetallicRoughness":{"metallicFactor":0,"roughnessFactor":0.5,"baseColorTexture":{"index":3}},"doubleSided":true,"name":"www.3dsmj.com   Str_Nikol_flower_trunk_02"},{"pbrMetallicRoughness":{"metallicFactor":0,"roughnessFactor":0.5,"baseColorTexture":{"index":4}},"doubleSided":true,"name":"www.3dsmj.com   Str_Nikol_flower_trunk_01"},{"pbrMetallicRoughness":{"metallicFactor":0,"roughnessFactor":0.5,"baseColorTexture":{"index":5}},"doubleSided":true,"name":"www.3dsmj.com   Str_Nikol_flower_front_1"},{"pbrMetallicRoughness":{"metallicFactor":0,"roughnessFactor":0.5,"baseColorTexture":{"index":6}},"doubleSided":true,"name":"www.3dsmj.com   Concrete"},{"pbrMetallicRoughness":{"metallicFactor":0,"roughnessFactor":0.5,"baseColorTexture":{"index":7}},"doubleSided":true,"name":"www.3dsmj.com   Soil"}],"textures":[{"sampler":0,"source":0,"name":"Texture"},{"sampler":1,"source":1,"name":"Texture"},{"sampler":2,"source":2,"name":"Texture"},{"sampler":3,"source":3,"name":"Texture"},{"sampler":4,"source":4,"name":"Texture"},{"sampler":5,"source":5,"name":"Texture"},{"sampler":6,"source":6,"name":"Texture"},{"sampler":7,"source":7,"name":"z086"}],"samplers":[{"magFilter":9729,"minFilter":9987,"wrapS":10497,"wrapT":10497},{"magFilter":9729,"minFilter":9987,"wrapS":10497,"wrapT":10497},{"magFilter":9729,"minFilter":9987,"wrapS":10497,"wrapT":10497},{"magFilter":9729,"minFilter":9987,"wrapS":10497,"wrapT":10497},{"magFilter":9729,"minFilter":9987,"wrapS":10497,"wrapT":10497},{"magFilter":9729,"minFilter":9987,"wrapS":10497,"wrapT":10497},{"magFilter":9729,"minFilter":9987,"wrapS":10497,"wrapT":10497},{"magFilter":9729,"minFilter":9987,"wrapS":10497,"wrapT":10497}],"images":[{"mimeType":"image/jpeg","uri":"data:image/jpeg;base64,"},{"mimeType":"image/jpeg","uri":"data:image/jpeg;base64,"},{"mimeType":"image/jpeg","uri":"data:image/jpeg;base64,"},{"mimeType":"image/jpeg","uri":"data:image/jpeg;base64,"},{"mimeType":"image/jpeg","uri":"data:image/jpeg;base64,"},{"mimeType":"image/jpeg","uri":"data:image/jpeg;base64,"},{"mimeType":"image/jpeg","uri":"data:image/jpeg;base64,"},{"mimeType":"image/jpeg","uri":"data:image/jpeg;base64,"}],"meshes":[{"primitives":[{"mode":4,"attributes":{"POSITION":0,"NORMAL":1,"TEXCOORD_0":2},"indices":3,"material":0}]},{"primitives":[{"mode":4,"attributes":{"POSITION":4,"NORMAL":5,"TEXCOORD_0":6},"indices":7,"material":1}]},{"primitives":[{"mode":4,"attributes":{"POSITION":8,"NORMAL":9,"TEXCOORD_0":10},"indices":11,"material":2}]},{"primitives":[{"mode":4,"attributes":{"POSITION":12,"NORMAL":13,"TEXCOORD_0":14},"indices":15,"material":3}]},{"primitives":[{"mode":4,"attributes":{"POSITION":16,"NORMAL":17,"TEXCOORD_0":18},"indices":19,"material":4}]},{"primitives":[{"mode":4,"attributes":{"POSITION":20,"NORMAL":21,"TEXCOORD_0":22},"indices":23,"material":5}]},{"primitives":[{"mode":4,"attributes":{"POSITION":24,"NORMAL":25,"TEXCOORD_0":26},"indices":27,"material":6}]},{"primitives":[{"mode":4,"attributes":{"POSITION":28,"NORMAL":29,"TEXCOORD_0":30},"indices":31,"material":7}]}]}