{"asset":{"version":"2.0","generator":"THREE.GLTFExporter"},"scenes":[{"nodes":[5]}],"scene":0,"nodes":[{"name":"G-__556185_1","mesh":0},{"name":"G-__556185_2","mesh":1},{"name":"G-__556185_3","mesh":2},{"name":"G-__556185_4","mesh":3},{"matrix":[-8.574021701077583e-7,0,6.3814348211778045,0,0,6.381433963775635,0,0,-6.3814348211778045,0,-8.574021701077583e-7,0,28.161014556884766,30,208.07321166992188,1],"name":"G-__556185006","extras":{"name":"G-__556185.006"},"children":[0,1,2,3]},{"children":[4]}],"bufferViews":[{"buffer":0,"byteOffset":0,"byteLength":468816,"target":34962,"byteStride":12},{"buffer":0,"byteOffset":468816,"byteLength":468816,"target":34962,"byteStride":12},{"buffer":0,"byteOffset":937632,"byteLength":312544,"target":34962,"byteStride":8},{"buffer":0,"byteOffset":1250176,"byteLength":221184,"target":34963},{"buffer":0,"byteOffset":1471360,"byteLength":53328,"target":34962,"byteStride":12},{"buffer":0,"byteOffset":1524688,"byteLength":53328,"target":34962,"byteStride":12},{"buffer":0,"byteOffset":1578016,"byteLength":35552,"target":34962,"byteStride":8},{"buffer":0,"byteOffset":1613568,"byteLength":24696,"target":34963},{"buffer":0,"byteOffset":1638264,"byteLength":288,"target":34962,"byteStride":12},{"buffer":0,"byteOffset":1638552,"byteLength":288,"target":34962,"byteStride":12},{"buffer":0,"byteOffset":1638840,"byteLength":192,"target":34962,"byteStride":8},{"buffer":0,"byteOffset":1639032,"byteLength":144,"target":34963},{"buffer":0,"byteOffset":1639176,"byteLength":4224,"target":34962,"byteStride":12},{"buffer":0,"byteOffset":1643400,"byteLength":4224,"target":34962,"byteStride":12},{"buffer":0,"byteOffset":1647624,"byteLength":2816,"target":34962,"byteStride":8},{"buffer":0,"byteOffset":1650440,"byteLength":1752,"target":34963}],"buffers":[{"byteLength":1652192,"uri":"data:application/octet-stream;base64,"}],"accessors":[{"bufferView":0,"componentType":5126,"count":39068,"max":[1.1171733140945435,0.9702897071838379,0.5588406920433044],"min":[-1.1842061281204224,0.4338209629058838,-0.7625946402549744],"type":"VEC3"},{"bufferView":1,"componentType":5126,"count":39068,"max":[0.9999688863754272,0.9998645782470703,0.9999922513961792],"min":[-0.9999922513961792,-0.9999746680259705,-0.9999980926513672],"type":"VEC3"},{"bufferView":2,"componentType":5126,"count":39068,"max":[1.1743921041488647,1.7763690948486328],"min":[-1.2015494108200073,0.21329545974731445],"type":"VEC2"},{"bufferView":3,"componentType":5125,"count":55296,"max":[39067],"min":[0],"type":"SCALAR"},{"bufferView":4,"componentType":5126,"count":4444,"max":[1.1247457265853882,0.4508976936340332,0.6032823920249939],"min":[-1.23684561252594,-5.960464477539063e-8,-0.7701683640480042],"type":"VEC3"},{"bufferView":5,"componentType":5126,"count":4444,"max":[1,1,1],"min":[-1,-0.9998008608818054,-1],"type":"VEC3"},{"bufferView":6,"componentType":5126,"count":4444,"max":[9131.4375,11722.5126953125],"min":[-9129.0546875,-11005.9716796875],"type":"VEC2"},{"bufferView":7,"componentType":5125,"count":6174,"max":[4443],"min":[0],"type":"SCALAR"},{"bufferView":8,"componentType":5126,"count":24,"max":[0.5527693033218384,0.7840288281440735,0.9095298647880554],"min":[-0.6472309827804565,0.7340013384819031,-0.2904704213142395],"type":"VEC3"},{"bufferView":9,"componentType":5126,"count":24,"max":[1,1,1],"min":[-1,-1,-1],"type":"VEC3"},{"bufferView":10,"componentType":5126,"count":24,"max":[1.942102074623108,2.0116894245147705],"min":[-0.9710510969161987,-0.011511564254760742],"type":"VEC2"},{"bufferView":11,"componentType":5125,"count":36,"max":[23],"min":[0],"type":"SCALAR"},{"bufferView":12,"componentType":5126,"count":352,"max":[0.25277402997016907,0.735000491142273,0.6095351576805115],"min":[-0.3472314774990082,4.76837158203125e-7,0.009529671631753445],"type":"VEC3"},{"bufferView":13,"componentType":5126,"count":352,"max":[1,1,1],"min":[-1,-1,-1],"type":"VEC3"},{"bufferView":14,"componentType":5126,"count":352,"max":[0.7488735914230347,1.6500264406204224],"min":[-0.9289615154266357,-0.43454110622406006],"type":"VEC2"},{"bufferView":15,"componentType":5125,"count":438,"max":[351],"min":[0],"type":"SCALAR"}],"materials":[{"pbrMetallicRoughness":{"metallicFactor":0,"roughnessFactor":0.5,"baseColorTexture":{"index":0}},"doubleSided":true,"name":"*230"},{"pbrMetallicRoughness":{"metallicFactor":0,"roughnessFactor":0.5,"baseColorTexture":{"index":1}},"doubleSided":true,"name":"*67"},{"pbrMetallicRoughness":{"metallicFactor":0,"roughnessFactor":0.5,"baseColorTexture":{"index":2}},"doubleSided":true,"name":"lamina_MESA-JANTAR"},{"pbrMetallicRoughness":{"metallicFactor":0,"roughnessFactor":0.5,"baseColorTexture":{"index":3}},"doubleSided":true,"name":"black_MESA-JANTAR"}],"textures":[{"sampler":0,"source":0,"name":"IMG_7048"},{"sampler":1,"source":1,"name":"888"},{"sampler":2,"source":2,"name":"_0026"},{"sampler":3,"source":3,"name":"_0004"}],"samplers":[{"magFilter":9729,"minFilter":9987,"wrapS":10497,"wrapT":10497},{"magFilter":9729,"minFilter":9987,"wrapS":10497,"wrapT":10497},{"magFilter":9729,"minFilter":9987,"wrapS":10497,"wrapT":10497},{"magFilter":9729,"minFilter":9987,"wrapS":10497,"wrapT":10497}],"images":[{"mimeType":"image/jpeg","uri":"data:image/jpeg;base64,"},{"mimeType":"image/jpeg","uri":"data:image/jpeg;base64,"},{"mimeType":"image/jpeg","uri":"data:image/jpeg;base64,"},{"mimeType":"image/jpeg","uri":"data:image/jpeg;base64,"}],"meshes":[{"primitives":[{"mode":4,"attributes":{"POSITION":0,"NORMAL":1,"TEXCOORD_0":2},"indices":3,"material":0}]},{"primitives":[{"mode":4,"attributes":{"POSITION":4,"NORMAL":5,"TEXCOORD_0":6},"indices":7,"material":1}]},{"primitives":[{"mode":4,"attributes":{"POSITION":8,"NORMAL":9,"TEXCOORD_0":10},"indices":11,"material":2}]},{"primitives":[{"mode":4,"attributes":{"POSITION":12,"NORMAL":13,"TEXCOORD_0":14},"indices":15,"material":3}]}]}