{"asset":{"version":"2.0","generator":"THREE.GLTFExporter"},"scenes":[{"nodes":[4]}],"scene":0,"nodes":[{"name":"Group#57","mesh":0},{"name":"Group#57_1","mesh":1},{"name":"Group#57_2","mesh":2},{"matrix":[-8.998193740844727,0,0.0000029319837750155144,0,0,8.998193740844727,0,0,-0.0000029319837750155144,0,-8.998193740844727,0,-144.0275421142578,29.999984741210938,-13.011983871459961,1],"name":"Group#57001","extras":{"name":"Group#57.001"},"children":[0,1,2]},{"children":[3]}],"bufferViews":[{"buffer":0,"byteOffset":0,"byteLength":1632,"target":34962,"byteStride":12},{"buffer":0,"byteOffset":1632,"byteLength":1632,"target":34962,"byteStride":12},{"buffer":0,"byteOffset":3264,"byteLength":1088,"target":34962,"byteStride":8},{"buffer":0,"byteOffset":4352,"byteLength":816,"target":34963},{"buffer":0,"byteOffset":5168,"byteLength":912,"target":34962,"byteStride":12},{"buffer":0,"byteOffset":6080,"byteLength":912,"target":34962,"byteStride":12},{"buffer":0,"byteOffset":6992,"byteLength":608,"target":34962,"byteStride":8},{"buffer":0,"byteOffset":7600,"byteLength":384,"target":34963},{"buffer":0,"byteOffset":7984,"byteLength":11580,"target":34962,"byteStride":12},{"buffer":0,"byteOffset":19564,"byteLength":11580,"target":34962,"byteStride":12},{"buffer":0,"byteOffset":31144,"byteLength":7720,"target":34962,"byteStride":8},{"buffer":0,"byteOffset":38864,"byteLength":17760,"target":34963}],"buffers":[{"byteLength":56624,"uri":"data:application/octet-stream;base64,"}],"accessors":[{"bufferView":0,"componentType":5126,"count":136,"max":[0.2828899621963501,0.7028085589408875,0.19232898950576782],"min":[-1.472577691078186,0,-0.82989901304245],"type":"VEC3"},{"bufferView":1,"componentType":5126,"count":136,"max":[1,1,1],"min":[-1,-1,-1],"type":"VEC3"},{"bufferView":2,"componentType":5126,"count":136,"max":[3.4833641052246094,1.0082097053527832],"min":[-3.4833641052246094,0.13205212354660034],"type":"VEC2"},{"bufferView":3,"componentType":5125,"count":204,"max":[135],"min":[0],"type":"SCALAR"},{"bufferView":4,"componentType":5126,"count":76,"max":[0.610497236251831,0.7327101230621338,-0.1680275797843933],"min":[-1.8794491291046143,0.7027693390846252,-1.1367706060409546],"type":"VEC3"},{"bufferView":5,"componentType":5126,"count":76,"max":[1,1,1],"min":[-1,-1,-1],"type":"VEC3"},{"bufferView":6,"componentType":5126,"count":76,"max":[1.0374776124954224,1.0002533197402954],"min":[-1.0374776124954224,-0.03747761249542236],"type":"VEC2"},{"bufferView":7,"componentType":5125,"count":96,"max":[75],"min":[0],"type":"SCALAR"},{"bufferView":8,"componentType":5126,"count":965,"max":[0.2859742045402527,1.0166759490966797,0.2571069896221161],"min":[-0.23889823257923126,0.373472660779953,-0.32642045617103577],"type":"VEC3"},{"bufferView":9,"componentType":5126,"count":965,"max":[1,1,0.9999980926513672],"min":[-1,-1,-0.9999922513961792],"type":"VEC3"},{"bufferView":10,"componentType":5126,"count":965,"max":[0.9065312743186951,0.9998993873596191],"min":[-0.04394036531448364,0.07774460315704346],"type":"VEC2"},{"bufferView":11,"componentType":5125,"count":4440,"max":[964],"min":[0],"type":"SCALAR"}],"materials":[{"pbrMetallicRoughness":{"metallicFactor":0,"roughnessFactor":0.5,"baseColorTexture":{"index":0}},"doubleSided":true,"name":"Color_008"},{"pbrMetallicRoughness":{"metallicFactor":0,"roughnessFactor":0.5,"baseColorTexture":{"index":1}},"doubleSided":true,"name":"Translucent_Glass_Gray"},{"pbrMetallicRoughness":{"metallicFactor":0,"roughnessFactor":0.5,"baseColorTexture":{"index":2}},"doubleSided":true,"name":"*25"}],"textures":[{"sampler":0,"source":0,"name":"_0021"},{"sampler":1,"source":1,"name":"_0027"},{"sampler":2,"source":2,"name":"_0009"}],"samplers":[{"magFilter":9729,"minFilter":9987,"wrapS":10497,"wrapT":10497},{"magFilter":9729,"minFilter":9987,"wrapS":10497,"wrapT":10497},{"magFilter":9729,"minFilter":9987,"wrapS":10497,"wrapT":10497}],"images":[{"mimeType":"image/jpeg","uri":"data:image/jpeg;base64,"},{"mimeType":"image/jpeg","uri":"data:image/jpeg;base64,"},{"mimeType":"image/jpeg","uri":"data:image/jpeg;base64,"}],"meshes":[{"primitives":[{"mode":4,"attributes":{"POSITION":0,"NORMAL":1,"TEXCOORD_0":2},"indices":3,"material":0}]},{"primitives":[{"mode":4,"attributes":{"POSITION":4,"NORMAL":5,"TEXCOORD_0":6},"indices":7,"material":1}]},{"primitives":[{"mode":4,"attributes":{"POSITION":8,"NORMAL":9,"TEXCOORD_0":10},"indices":11,"material":2}]}]}