{"asset":{"version":"2.0","generator":"THREE.GLTFExporter"},"scenes":[{"nodes":[1]}],"scene":0,"nodes":[{"matrix":[1,0,0,0,0,1,0,0,0,0,1,0,-97.5999755859375,40,-105.59030151367188,1],"name":"2楼墙壁","extras":{"name":"2楼墙壁"},"mesh":0},{"children":[0]}],"bufferViews":[{"buffer":0,"byteOffset":0,"byteLength":8064,"target":34962,"byteStride":12},{"buffer":0,"byteOffset":8064,"byteLength":8064,"target":34962,"byteStride":12},{"buffer":0,"byteOffset":16128,"byteLength":5376,"target":34962,"byteStride":8},{"buffer":0,"byteOffset":21504,"byteLength":4968,"target":34963}],"buffers":[{"byteLength":26472,"uri":"data:application/octet-stream;base64,"}],"accessors":[{"bufferView":0,"componentType":5126,"count":672,"max":[277.6695556640625,9.990875244140625,342.06317138671875],"min":[-81.90467834472656,-10,-133.9695281982422],"type":"VEC3"},{"bufferView":1,"componentType":5126,"count":672,"max":[1,1,1],"min":[-1,-1,-1],"type":"VEC3"},{"bufferView":2,"componentType":5126,"count":672,"max":[0.8749695420265198,1],"min":[0,0],"type":"VEC2"},{"bufferView":3,"componentType":5125,"count":1242,"max":[671],"min":[0],"type":"SCALAR"}],"materials":[{"pbrMetallicRoughness":{"baseColorFactor":[0.800000011920929,0.800000011920929,0.800000011920929,1],"metallicFactor":0,"roughnessFactor":0.5},"emissiveFactor":[0.13913650810718536,0.472818523645401,1],"doubleSided":true,"name":"材质.001"}],"meshes":[{"primitives":[{"mode":4,"attributes":{"POSITION":0,"NORMAL":1,"TEXCOORD_0":2},"indices":3,"material":0}]}]}