{"asset":{"version":"2.0","generator":"THREE.GLTFExporter"},"scenes":[{"nodes":[3]}],"scene":0,"nodes":[{"name":"Plane008","mesh":0},{"name":"Plane008_1","mesh":1},{"matrix":[-1.000000268717713,0,0,0,0,-1.3435885648505064e-7,1.0000001343588565,0,0,1.0000001343588565,-1.3435885648505064e-7,0,2.771533966064453,36.76995086669922,-40.33798599243164,1],"name":"玻璃车间","extras":{"name":"玻璃车间"},"children":[0,1]},{"children":[2]}],"bufferViews":[{"buffer":0,"byteOffset":0,"byteLength":192,"target":34962,"byteStride":12},{"buffer":0,"byteOffset":192,"byteLength":192,"target":34962,"byteStride":12},{"buffer":0,"byteOffset":384,"byteLength":128,"target":34962,"byteStride":8},{"buffer":0,"byteOffset":512,"byteLength":96,"target":34963},{"buffer":0,"byteOffset":608,"byteLength":7536,"target":34962,"byteStride":12},{"buffer":0,"byteOffset":8144,"byteLength":7536,"target":34962,"byteStride":12},{"buffer":0,"byteOffset":15680,"byteLength":5024,"target":34962,"byteStride":8},{"buffer":0,"byteOffset":20704,"byteLength":3552,"target":34963}],"buffers":[{"byteLength":24256,"uri":"data:application/octet-stream;base64,"}],"accessors":[{"bufferView":0,"componentType":5126,"count":16,"max":[40.78752136230469,22.731964111328125,6.6506805419921875],"min":[-44.078712463378906,-27.634536743164062,-6.693360328674316],"type":"VEC3"},{"bufferView":1,"componentType":5126,"count":16,"max":[1,1,0],"min":[0,0,0],"type":"VEC3"},{"bufferView":2,"componentType":5126,"count":16,"max":[1,1],"min":[0,0],"type":"VEC2"},{"bufferView":3,"componentType":5125,"count":24,"max":[15],"min":[0],"type":"SCALAR"},{"bufferView":4,"componentType":5126,"count":628,"max":[41.03302001953125,23.017738342285156,6.733803749084473],"min":[-44.154388427734375,-27.705768585205078,-6.769932746887207],"type":"VEC3"},{"bufferView":5,"componentType":5126,"count":628,"max":[1,1,1],"min":[-1,-1,-1],"type":"VEC3"},{"bufferView":6,"componentType":5126,"count":628,"max":[1,1],"min":[0,0],"type":"VEC2"},{"bufferView":7,"componentType":5125,"count":888,"max":[627],"min":[0],"type":"SCALAR"}],"materials":[{"pbrMetallicRoughness":{"baseColorFactor":[0.800000011920929,0.800000011920929,0.800000011920929,1],"metallicFactor":0,"roughnessFactor":0.5},"emissiveFactor":[1,1,1],"doubleSided":true,"name":"发光材质"},{"pbrMetallicRoughness":{"baseColorFactor":[0.06474820524454117,0.05520832538604736,0.034936077892780304,1],"metallicFactor":0.1499999612569809,"roughnessFactor":0.7999999523162842},"doubleSided":true,"name":"hei-11"}],"meshes":[{"primitives":[{"mode":4,"attributes":{"POSITION":0,"NORMAL":1,"TEXCOORD_0":2},"indices":3,"material":0}]},{"primitives":[{"mode":4,"attributes":{"POSITION":4,"NORMAL":5,"TEXCOORD_0":6},"indices":7,"material":1}]}]}