{"asset":{"version":"2.0","generator":"THREE.GLTFExporter"},"scenes":[{"nodes":[4]}],"scene":0,"nodes":[{"name":"G-stem","mesh":0},{"name":"G-stem_1","mesh":1},{"name":"G-stem_2","mesh":2},{"matrix":[8.652010917663574,0,0,0,0,8.652010917663574,0,0,0,0,8.652010917663574,0,97.41582489013672,35.10270690917969,54.792259216308594,1],"name":"植物004","extras":{"name":"植物.004"},"children":[0,1,2]},{"children":[3]}],"bufferViews":[{"buffer":0,"byteOffset":0,"byteLength":11064,"target":34962,"byteStride":12},{"buffer":0,"byteOffset":11064,"byteLength":11064,"target":34962,"byteStride":12},{"buffer":0,"byteOffset":22128,"byteLength":7376,"target":34962,"byteStride":8},{"buffer":0,"byteOffset":29504,"byteLength":8940,"target":34963},{"buffer":0,"byteOffset":38444,"byteLength":36540,"target":34962,"byteStride":12},{"buffer":0,"byteOffset":74984,"byteLength":36540,"target":34962,"byteStride":12},{"buffer":0,"byteOffset":111524,"byteLength":24360,"target":34962,"byteStride":8},{"buffer":0,"byteOffset":135884,"byteLength":26508,"target":34963},{"buffer":0,"byteOffset":162392,"byteLength":281460,"target":34962,"byteStride":12},{"buffer":0,"byteOffset":443852,"byteLength":281460,"target":34962,"byteStride":12},{"buffer":0,"byteOffset":725312,"byteLength":187640,"target":34962,"byteStride":8},{"buffer":0,"byteOffset":912952,"byteLength":201948,"target":34963}],"buffers":[{"byteLength":1114900,"uri":"data:application/octet-stream;base64,"}],"accessors":[{"bufferView":0,"componentType":5126,"count":922,"max":[0.18280187249183655,0.32480281591415405,0.3336820602416992],"min":[-0.2699880301952362,-0.5251120924949646,-0.3858637809753418],"type":"VEC3"},{"bufferView":1,"componentType":5126,"count":922,"max":[0.9991962909698486,0.9997623562812805,0.9949010014533997],"min":[-0.9996627569198608,-0.8753994107246399,-0.9967643618583679],"type":"VEC3"},{"bufferView":2,"componentType":5126,"count":922,"max":[0.887939453125,961.5850830078125],"min":[-638.2902221679688,0.0000010132789611816406],"type":"VEC2"},{"bufferView":3,"componentType":5125,"count":2235,"max":[921],"min":[0],"type":"SCALAR"},{"bufferView":4,"componentType":5126,"count":3045,"max":[0.5257031917572021,0.45459967851638794,0.39882051944732666],"min":[-0.3528052270412445,-0.3605262041091919,-0.4492835998535156],"type":"VEC3"},{"bufferView":5,"componentType":5126,"count":3045,"max":[0.9994357228279114,0.9998948574066162,0.9984520077705383],"min":[-0.9935557842254639,-0.9989901781082153,-0.9996948838233948],"type":"VEC3"},{"bufferView":6,"componentType":5126,"count":3045,"max":[0.9935462474822998,1.178776741027832],"min":[0.0062060002237558365,0.00035697221755981445],"type":"VEC2"},{"bufferView":7,"componentType":5125,"count":6627,"max":[3044],"min":[0],"type":"SCALAR"},{"bufferView":8,"componentType":5126,"count":23455,"max":[0.09624753892421722,-0.3455084562301636,0.10470160841941833],"min":[-0.0983957052230835,-0.5897704362869263,-0.11768817901611328],"type":"VEC3"},{"bufferView":9,"componentType":5126,"count":23455,"max":[0.9994569420814514,0.9999902844429016,0.9998300671577454],"min":[-0.99957674741745,-0.9999668002128601,-0.9999980926513672],"type":"VEC3"},{"bufferView":10,"componentType":5126,"count":23455,"max":[10.15855598449707,5.969196796417236],"min":[-9.181432723999023,-4.893311977386475],"type":"VEC2"},{"bufferView":11,"componentType":5125,"count":50487,"max":[23454],"min":[0],"type":"SCALAR"}],"materials":[{"pbrMetallicRoughness":{"metallicFactor":0,"roughnessFactor":0.5,"baseColorTexture":{"index":0}},"doubleSided":true,"name":"stem1"},{"pbrMetallicRoughness":{"metallicFactor":0,"roughnessFactor":0.5,"baseColorTexture":{"index":1}},"doubleSided":true,"name":"leavs_4"},{"pbrMetallicRoughness":{"metallicFactor":0,"roughnessFactor":0.38976380228996277,"baseColorTexture":{"index":2}},"normalTexture":{"index":2},"doubleSided":true,"name":"枯藤曼"}],"textures":[{"sampler":0,"source":0,"name":"SH设计002"},{"sampler":1,"source":1,"name":"SH设计001e_2"},{"sampler":2,"source":2,"name":"SH设计004"}],"samplers":[{"magFilter":9729,"minFilter":9987,"wrapS":10497,"wrapT":10497},{"magFilter":9729,"minFilter":9987,"wrapS":10497,"wrapT":10497},{"magFilter":9729,"minFilter":9987,"wrapS":10497,"wrapT":10497}],"images":[{"mimeType":"image/jpeg","uri":"data:image/jpeg;base64,"},{"mimeType":"image/jpeg","uri":"data:image/jpeg;base64,"},{"mimeType":"image/jpeg","uri":"data:image/jpeg;base64,"}],"meshes":[{"primitives":[{"mode":4,"attributes":{"POSITION":0,"NORMAL":1,"TEXCOORD_0":2},"indices":3,"material":0}]},{"primitives":[{"mode":4,"attributes":{"POSITION":4,"NORMAL":5,"TEXCOORD_0":6},"indices":7,"material":1}]},{"primitives":[{"mode":4,"attributes":{"POSITION":8,"NORMAL":9,"TEXCOORD_0":10},"indices":11,"material":2}]}]}