{"asset":{"version":"2.0","generator":"THREE.GLTFExporter"},"scenes":[{"nodes":[3]}],"scene":0,"nodes":[{"name":"Mesh533","mesh":0},{"name":"Mesh533_1","mesh":1},{"matrix":[-0.000007288044876065363,0,-9.011953999088497,0,0,9.011954307556152,0,0,9.011953999088497,0,-0.000007288044876065363,0,-133.5153045654297,30.00000762939453,114.38780212402344,1],"name":"Seating004","extras":{"name":"Seating.004"},"children":[0,1]},{"children":[2]}],"bufferViews":[{"buffer":0,"byteOffset":0,"byteLength":108300,"target":34962,"byteStride":12},{"buffer":0,"byteOffset":108300,"byteLength":108300,"target":34962,"byteStride":12},{"buffer":0,"byteOffset":216600,"byteLength":72200,"target":34962,"byteStride":8},{"buffer":0,"byteOffset":288800,"byteLength":183096,"target":34963},{"buffer":0,"byteOffset":471896,"byteLength":10608,"target":34962,"byteStride":12},{"buffer":0,"byteOffset":482504,"byteLength":10608,"target":34962,"byteStride":12},{"buffer":0,"byteOffset":493112,"byteLength":7072,"target":34962,"byteStride":8},{"buffer":0,"byteOffset":500184,"byteLength":9984,"target":34963}],"buffers":[{"byteLength":510168,"uri":"data:application/octet-stream;base64,"}],"accessors":[{"bufferView":0,"componentType":5126,"count":9025,"max":[0.34419286251068115,0.5380014181137085,0.30502671003341675],"min":[-0.3359205722808838,0.13237431645393372,-0.35661327838897705],"type":"VEC3"},{"bufferView":1,"componentType":5126,"count":9025,"max":[0.9974343776702881,0.9995482563972473,0.998231053352356],"min":[-0.9839727282524109,-0.9999668598175049,-0.9911282062530518],"type":"VEC3"},{"bufferView":2,"componentType":5126,"count":9025,"max":[1.0500750541687012,1.0383752584457397],"min":[-0.05236846208572388,-0.042261600494384766],"type":"VEC2"},{"bufferView":3,"componentType":5125,"count":45774,"max":[9024],"min":[0],"type":"SCALAR"},{"bufferView":4,"componentType":5126,"count":884,"max":[0.2797660231590271,0.12395264953374863,0.31145620346069336],"min":[-0.2676422595977783,-8.344650268554688e-7,-0.2363533228635788],"type":"VEC3"},{"bufferView":5,"componentType":5126,"count":884,"max":[0.9972081780433655,0.7741908431053162,0.9972081780433655],"min":[-0.9972081780433655,-0.7296096682548523,-0.9972081780433655],"type":"VEC3"},{"bufferView":6,"componentType":5126,"count":884,"max":[1.0242141485214233,0.9471077919006348],"min":[-0.021501541137695312,-0.030170321464538574],"type":"VEC2"},{"bufferView":7,"componentType":5125,"count":2496,"max":[883],"min":[0],"type":"SCALAR"}],"materials":[{"pbrMetallicRoughness":{"metallicFactor":0,"roughnessFactor":0.5527864098548889},"doubleSided":true,"name":"SOFA  "},{"pbrMetallicRoughness":{"baseColorFactor":[0.027209999039769173,0.02106330916285515,0.02331845834851265,1],"metallicFactor":0,"roughnessFactor":0.5527864098548889},"doubleSided":true,"name":""}],"meshes":[{"primitives":[{"mode":4,"attributes":{"POSITION":0,"NORMAL":1,"TEXCOORD_0":2},"indices":3,"material":0}]},{"primitives":[{"mode":4,"attributes":{"POSITION":4,"NORMAL":5,"TEXCOORD_0":6},"indices":7,"material":1}]}]}