{"asset":{"version":"2.0","generator":"THREE.GLTFExporter"},"scenes":[{"nodes":[1]}],"scene":0,"nodes":[{"matrix":[0.7627758979797363,0,0,0,0,0.7627758979797363,0,0,0,0,0.7627758979797363,0,100.26747131347656,37.191009521484375,-122.96916961669922,1],"name":"消防栓","extras":{"name":"消防栓"},"mesh":0},{"children":[0]}],"bufferViews":[{"buffer":0,"byteOffset":0,"byteLength":288,"target":34962,"byteStride":12},{"buffer":0,"byteOffset":288,"byteLength":288,"target":34962,"byteStride":12},{"buffer":0,"byteOffset":576,"byteLength":192,"target":34962,"byteStride":8},{"buffer":0,"byteOffset":768,"byteLength":120,"target":34963}],"buffers":[{"byteLength":888,"uri":"data:application/octet-stream;base64,"}],"accessors":[{"bufferView":0,"componentType":5126,"count":24,"max":[0.8892452716827393,4.102870464324951,2.876924514770508],"min":[-0.5928268432617188,-4.102870464324951,-2.8775620460510254],"type":"VEC3"},{"bufferView":1,"componentType":5126,"count":24,"max":[0,1,1],"min":[-1,-1,-1],"type":"VEC3"},{"bufferView":2,"componentType":5126,"count":24,"max":[0.8155021667480469,0.9992210865020752],"min":[0.001353853615000844,0.501785397529602],"type":"VEC2"},{"bufferView":3,"componentType":5125,"count":30,"max":[23],"min":[0],"type":"SCALAR"}],"materials":[{"pbrMetallicRoughness":{"metallicFactor":0,"roughnessFactor":0.30000001192092896,"baseColorTexture":{"index":0}},"doubleSided":true,"name":"XFS"}],"textures":[{"sampler":0,"source":0,"name":"Image_16"}],"samplers":[{"magFilter":9729,"minFilter":9987,"wrapS":10497,"wrapT":10497}],"images":[{"mimeType":"image/jpeg","uri":"data:image/jpeg;base64,"}],"meshes":[{"primitives":[{"mode":4,"attributes":{"POSITION":0,"NORMAL":1,"TEXCOORD_0":2},"indices":3,"material":0}]}]}