{"asset":{"version":"2.0","generator":"THREE.GLTFExporter"},"scenes":[{"nodes":[1]}],"scene":0,"nodes":[{"matrix":[6.47137975692749,0,0,0,0,6.47137975692749,0,0,0,0,6.47137975692749,0,-140.596923828125,33.53913879394531,154.09130859375,1],"name":"G-__561090","extras":{"name":"G-__561090"},"mesh":0},{"children":[0]}],"bufferViews":[{"buffer":0,"byteOffset":0,"byteLength":343056,"target":34962,"byteStride":12},{"buffer":0,"byteOffset":343056,"byteLength":343056,"target":34962,"byteStride":12},{"buffer":0,"byteOffset":686112,"byteLength":228704,"target":34962,"byteStride":8},{"buffer":0,"byteOffset":914816,"byteLength":189528,"target":34963}],"buffers":[{"byteLength":1104344,"uri":"data:application/octet-stream;base64,"}],"accessors":[{"bufferView":0,"componentType":5126,"count":28588,"max":[0.3006593585014343,0.689832866191864,0.32839974761009216],"min":[-0.3058896064758301,-0.5468929409980774,-0.2536909878253937],"type":"VEC3"},{"bufferView":1,"componentType":5126,"count":28588,"max":[1,1,1],"min":[-1,-1,-1],"type":"VEC3"},{"bufferView":2,"componentType":5126,"count":28588,"max":[0.984345018863678,1.9707874059677124],"min":[-0.9843299984931946,-0.21455395221710205],"type":"VEC2"},{"bufferView":3,"componentType":5125,"count":47382,"max":[28587],"min":[0],"type":"SCALAR"}],"materials":[{"pbrMetallicRoughness":{"metallicFactor":0,"roughnessFactor":0.5,"baseColorTexture":{"index":0}},"doubleSided":true,"name":"3D66_SU_1574232581133_001"}],"textures":[{"sampler":0,"source":0,"name":"3D66_SU_1574232581133_001"}],"samplers":[{"magFilter":9729,"minFilter":9987,"wrapS":10497,"wrapT":10497}],"images":[{"mimeType":"image/jpeg","uri":"data:image/jpeg;base64,"}],"meshes":[{"primitives":[{"mode":4,"attributes":{"POSITION":0,"NORMAL":1,"TEXCOORD_0":2},"indices":3,"material":0}]}]}