{"asset":{"version":"2.0","generator":"THREE.GLTFExporter"},"scenes":[{"nodes":[3]}],"scene":0,"nodes":[{"name":"3DGeom~1_Defintion#3_1","mesh":0},{"name":"3DGeom~1_Defintion#3_2","mesh":1},{"matrix":[-0.010203553306062004,0,0.602806653706745,0,0,0.7185691595077515,0,0,-0.687974975893028,0,-0.011645175607461426,0,61.32343292236328,29.999969482421875,-201.99224853515625,1],"name":"3DGeom~1_Defintion#3024","extras":{"name":"3DGeom~1_Defintion#3.024"},"children":[0,1]},{"children":[2]}],"bufferViews":[{"buffer":0,"byteOffset":0,"byteLength":5184,"target":34962,"byteStride":12},{"buffer":0,"byteOffset":5184,"byteLength":5184,"target":34962,"byteStride":12},{"buffer":0,"byteOffset":10368,"byteLength":3456,"target":34962,"byteStride":8},{"buffer":0,"byteOffset":13824,"byteLength":2448,"target":34963},{"buffer":0,"byteOffset":16272,"byteLength":1368,"target":34962,"byteStride":12},{"buffer":0,"byteOffset":17640,"byteLength":1368,"target":34962,"byteStride":12},{"buffer":0,"byteOffset":19008,"byteLength":912,"target":34962,"byteStride":8},{"buffer":0,"byteOffset":19920,"byteLength":768,"target":34963}],"buffers":[{"byteLength":20688,"uri":"data:application/octet-stream;base64,"}],"accessors":[{"bufferView":0,"componentType":5126,"count":432,"max":[12.700043678283691,9.832488059997559,6.350790977478027],"min":[-12.700058937072754,9.514657020568848,-6.350035667419434],"type":"VEC3"},{"bufferView":1,"componentType":5126,"count":432,"max":[0.9833022952079773,1,0.9833022952079773],"min":[-0.9833022952079773,-0.9881608486175537,-0.9833022952079773],"type":"VEC3"},{"bufferView":2,"componentType":5126,"count":432,"max":[1.9505910873413086,13.315868377685547],"min":[-12.869094848632812,-3.3060479164123535],"type":"VEC2"},{"bufferView":3,"componentType":5125,"count":612,"max":[431],"min":[0],"type":"SCALAR"},{"bufferView":4,"componentType":5126,"count":114,"max":[11.763406753540039,9.529609680175781,4.53688383102417],"min":[-11.763357162475586,-9.5367431640625e-7,-4.537499904632568],"type":"VEC3"},{"bufferView":5,"componentType":5126,"count":114,"max":[0.9050693511962891,0.57621830701828,0.5796077847480774],"min":[-0.9050693511962891,-0.57621830701828,-0.5796077847480774],"type":"VEC3"},{"bufferView":6,"componentType":5126,"count":114,"max":[5.383020877838135,3.18721866607666],"min":[-5.383020877838135,-1.179666519165039],"type":"VEC2"},{"bufferView":7,"componentType":5125,"count":192,"max":[113],"min":[0],"type":"SCALAR"}],"materials":[{"pbrMetallicRoughness":{"metallicFactor":0,"roughnessFactor":0.5,"baseColorTexture":{"index":0}},"doubleSided":true,"name":"数联云设计客户端出品2"},{"pbrMetallicRoughness":{"metallicFactor":0,"roughnessFactor":0.5,"baseColorTexture":{"index":1}},"doubleSided":true,"name":"数联云设计客户端出品3"}],"textures":[{"sampler":0,"source":0,"name":"888"},{"sampler":1,"source":1,"name":"花西整理_0021"}],"samplers":[{"magFilter":9729,"minFilter":9987,"wrapS":10497,"wrapT":10497},{"magFilter":9729,"minFilter":9987,"wrapS":10497,"wrapT":10497}],"images":[{"mimeType":"image/jpeg","uri":"data:image/jpeg;base64,"},{"mimeType":"image/jpeg","uri":"data:image/jpeg;base64,"}],"meshes":[{"primitives":[{"mode":4,"attributes":{"POSITION":0,"NORMAL":1,"TEXCOORD_0":2},"indices":3,"material":0}]},{"primitives":[{"mode":4,"attributes":{"POSITION":4,"NORMAL":5,"TEXCOORD_0":6},"indices":7,"material":1}]}]}