{"asset":{"version":"2.0","generator":"THREE.GLTFExporter"},"scenes":[{"nodes":[4]}],"scene":0,"nodes":[{"name":"Plane008001","mesh":0},{"name":"Plane008001_1","mesh":1},{"name":"Plane008001_2","mesh":2},{"matrix":[-1.000000268717713,0,0,0,0,-1.3435885648505064e-7,1.0000001343588565,0,0,1.0000001343588565,-1.3435885648505064e-7,0,2.771533966064453,36.76995086669922,-40.33798599243164,1],"name":"玻璃车间001","extras":{"name":"玻璃车间.001"},"children":[0,1,2]},{"children":[3]}],"bufferViews":[{"buffer":0,"byteOffset":0,"byteLength":2712,"target":34962,"byteStride":12},{"buffer":0,"byteOffset":2712,"byteLength":2712,"target":34962,"byteStride":12},{"buffer":0,"byteOffset":5424,"byteLength":1808,"target":34962,"byteStride":8},{"buffer":0,"byteOffset":7232,"byteLength":2544,"target":34963},{"buffer":0,"byteOffset":9776,"byteLength":816,"target":34962,"byteStride":12},{"buffer":0,"byteOffset":10592,"byteLength":816,"target":34962,"byteStride":12},{"buffer":0,"byteOffset":11408,"byteLength":544,"target":34962,"byteStride":8},{"buffer":0,"byteOffset":11952,"byteLength":768,"target":34963},{"buffer":0,"byteOffset":12720,"byteLength":2040,"target":34962,"byteStride":12},{"buffer":0,"byteOffset":14760,"byteLength":2040,"target":34962,"byteStride":12},{"buffer":0,"byteOffset":16800,"byteLength":1360,"target":34962,"byteStride":8},{"buffer":0,"byteOffset":18160,"byteLength":1248,"target":34963}],"buffers":[{"byteLength":19408,"uri":"data:application/octet-stream;base64,"}],"accessors":[{"bufferView":0,"componentType":5126,"count":226,"max":[45.36141586303711,161.2425537109375,-4.768038749694824],"min":[-51.1022834777832,64.77885437011719,-6.7699713706970215],"type":"VEC3"},{"bufferView":1,"componentType":5126,"count":226,"max":[0,0,1],"min":[0,0,-1],"type":"VEC3"},{"bufferView":2,"componentType":5126,"count":226,"max":[0.9659997820854187,0.9899842739105225],"min":[0.01000000536441803,0.5099999904632568],"type":"VEC2"},{"bufferView":3,"componentType":5125,"count":636,"max":[225],"min":[0],"type":"SCALAR"},{"bufferView":4,"componentType":5126,"count":68,"max":[40.53822708129883,156.41937255859375,-4.7699713706970215],"min":[-46.27910232543945,69.60203552246094,-4.7699713706970215],"type":"VEC3"},{"bufferView":5,"componentType":5126,"count":68,"max":[0,0,1],"min":[0,0,1],"type":"VEC3"},{"bufferView":6,"componentType":5126,"count":68,"max":[0.4660000503063202,0.9660007953643799],"min":[0.0339999794960022,0.5340007543563843],"type":"VEC2"},{"bufferView":7,"componentType":5125,"count":192,"max":[67],"min":[0],"type":"SCALAR"},{"bufferView":8,"componentType":5126,"count":170,"max":[45.36141586303711,161.2425537109375,-4.768039703369141],"min":[-51.1022834777832,64.77885437011719,-6.76997184753418],"type":"VEC3"},{"bufferView":9,"componentType":5126,"count":170,"max":[0.9951424598693848,0.9951424598693848,0],"min":[-0.9951424598693848,-0.9951424598693848,-1],"type":"VEC3"},{"bufferView":10,"componentType":5126,"count":170,"max":[1,0.989987850189209],"min":[0,0],"type":"VEC2"},{"bufferView":11,"componentType":5125,"count":312,"max":[169],"min":[0],"type":"SCALAR"}],"materials":[{"pbrMetallicRoughness":{"baseColorFactor":[0.800000011920929,0.800000011920929,0.800000011920929,1],"metallicFactor":0,"roughnessFactor":0.5},"emissiveFactor":[1,1,1],"doubleSided":true,"name":"发光材质"},{"pbrMetallicRoughness":{"metallicFactor":0,"roughnessFactor":0.5,"baseColorTexture":{"index":0}},"doubleSided":true,"name":"展台地面"},{"pbrMetallicRoughness":{"baseColorFactor":[0.800000011920929,0.800000011920929,0.800000011920929,1],"metallicFactor":0,"roughnessFactor":0.5},"emissiveFactor":[1,0.02460813894867897,0.4138265550136566],"doubleSided":true,"name":"材质.007"}],"meshes":[{"primitives":[{"mode":4,"attributes":{"POSITION":0,"NORMAL":1,"TEXCOORD_0":2},"indices":3,"material":0}]},{"primitives":[{"mode":4,"attributes":{"POSITION":4,"NORMAL":5,"TEXCOORD_0":6},"indices":7,"material":1}]},{"primitives":[{"mode":4,"attributes":{"POSITION":8,"NORMAL":9,"TEXCOORD_0":10},"indices":11,"material":2}]}],"textures":[{"sampler":0,"source":0,"name":"展台"}],"samplers":[{"magFilter":9729,"minFilter":9987,"wrapS":10497,"wrapT":10497}],"images":[{"mimeType":"image/jpeg","uri":"data:image/jpeg;base64,"}]}