{"asset":{"version":"2.0","generator":"THREE.GLTFExporter"},"scenes":[{"nodes":[1]}],"scene":0,"nodes":[{"matrix":[5.934654712677002,0,0,0,0,5.934654712677002,0,0,0,0,5.934654712677002,0,-146.96710205078125,35.08656311035156,117.78640747070312,1],"name":"会议桌","extras":{"name":"会议桌"},"mesh":0},{"children":[0]}],"bufferViews":[{"buffer":0,"byteOffset":0,"byteLength":4380,"target":34962,"byteStride":12},{"buffer":0,"byteOffset":4380,"byteLength":4380,"target":34962,"byteStride":12},{"buffer":0,"byteOffset":8760,"byteLength":2736,"target":34963}],"buffers":[{"byteLength":11496,"uri":"data:application/octet-stream;base64,"}],"accessors":[{"bufferView":0,"componentType":5126,"count":365,"max":[0.9999548196792603,-0.00003337860107421875,0.05281972885131836],"min":[-1.0000076293945312,-0.8570953607559204,-3.660813331604004],"type":"VEC3"},{"bufferView":1,"componentType":5126,"count":365,"max":[1,1,1],"min":[-1,-1,-1],"type":"VEC3"},{"bufferView":2,"componentType":5125,"count":684,"max":[364],"min":[0],"type":"SCALAR"}],"materials":[{"pbrMetallicRoughness":{"metallicFactor":1,"roughnessFactor":1}}],"meshes":[{"primitives":[{"mode":4,"attributes":{"POSITION":0,"NORMAL":1},"indices":2,"material":0}]}]}