{"asset":{"version":"2.0","generator":"THREE.GLTFExporter"},"scenes":[{"nodes":[4]}],"scene":0,"nodes":[{"name":"Plane001","mesh":0},{"name":"Plane001_1","mesh":1},{"name":"Plane001_2","mesh":2},{"matrix":[-0.0000013184143232179224,0,-1.630271140563261,0,0,1.6302711963653564,0,0,1.630271140563261,0,-0.0000013184143232179224,0,151.48814392089844,46.56480407714844,-190.58531188964844,1],"name":"投影幕布001","extras":{"name":"投影幕布.001"},"children":[0,1,2]},{"children":[3]}],"bufferViews":[{"buffer":0,"byteOffset":0,"byteLength":48,"target":34962,"byteStride":12},{"buffer":0,"byteOffset":48,"byteLength":48,"target":34962,"byteStride":12},{"buffer":0,"byteOffset":96,"byteLength":32,"target":34962,"byteStride":8},{"buffer":0,"byteOffset":128,"byteLength":24,"target":34963},{"buffer":0,"byteOffset":152,"byteLength":48,"target":34962,"byteStride":12},{"buffer":0,"byteOffset":200,"byteLength":48,"target":34962,"byteStride":12},{"buffer":0,"byteOffset":248,"byteLength":32,"target":34962,"byteStride":8},{"buffer":0,"byteOffset":280,"byteLength":24,"target":34963},{"buffer":0,"byteOffset":304,"byteLength":50904,"target":34962,"byteStride":12},{"buffer":0,"byteOffset":51208,"byteLength":50904,"target":34962,"byteStride":12},{"buffer":0,"byteOffset":102112,"byteLength":33936,"target":34962,"byteStride":8},{"buffer":0,"byteOffset":136048,"byteLength":23688,"target":34963}],"buffers":[{"byteLength":159736,"uri":"data:application/octet-stream;base64,"}],"accessors":[{"bufferView":0,"componentType":5126,"count":4,"max":[6.2703142166137695,3.8666977882385254,0.03925895690917969],"min":[-6.27031135559082,-3.8668031692504883,-0.03958401829004288],"type":"VEC3"},{"bufferView":1,"componentType":5126,"count":4,"max":[0.001972340513020754,-0.005917021539062262,-0.9999804496765137],"min":[0.001972340513020754,-0.005917021539062262,-0.9999804496765137],"type":"VEC3"},{"bufferView":2,"componentType":5126,"count":4,"max":[0,1],"min":[0,1],"type":"VEC2"},{"bufferView":3,"componentType":5125,"count":6,"max":[3],"min":[0],"type":"SCALAR"},{"bufferView":4,"componentType":5126,"count":4,"max":[5.962292194366455,3.676750421524048,-0.03896421194076538],"min":[-5.962289333343506,-3.6768505573272705,-0.11393411457538605],"type":"VEC3"},{"bufferView":5,"componentType":5126,"count":4,"max":[0.001972340513020754,-0.005917021539062262,-0.9999804496765137],"min":[0.001972340513020754,-0.005917021539062262,-0.9999804496765137],"type":"VEC3"},{"bufferView":6,"componentType":5126,"count":4,"max":[0,1],"min":[0,1],"type":"VEC2"},{"bufferView":7,"componentType":5125,"count":6,"max":[3],"min":[0],"type":"SCALAR"},{"bufferView":8,"componentType":5126,"count":4242,"max":[6.757932186126709,4.168869972229004,3.7657346725463867],"min":[-6.824740886688232,-10.160767555236816,-1.6799296140670776],"type":"VEC3"},{"bufferView":9,"componentType":5126,"count":4242,"max":[0.9993555545806885,1,0.9986600875854492],"min":[-0.9986794590950012,-0.9999961853027344,-0.9970839619636536],"type":"VEC3"},{"bufferView":10,"componentType":5126,"count":4242,"max":[1,1],"min":[0,0],"type":"VEC2"},{"bufferView":11,"componentType":5125,"count":5922,"max":[4241],"min":[0],"type":"SCALAR"}],"materials":[{"pbrMetallicRoughness":{"baseColorFactor":[0.018444538116455078,0.018444538116455078,0.018444538116455078,1],"metallicFactor":0,"roughnessFactor":0.5},"emissiveFactor":[0.027513083070516586,0.027513083070516586,0.027513083070516586],"doubleSided":true,"name":"材质.002"},{"pbrMetallicRoughness":{"baseColorFactor":[0.800000011920929,0.800000011920929,0.800000011920929,1],"metallicFactor":0,"roughnessFactor":0.5},"emissiveFactor":[0.8725679516792297,0.38680198788642883,0.1334095299243927],"doubleSided":true,"name":"材质.003"},{"pbrMetallicRoughness":{"baseColorFactor":[0.08918998390436172,0.08918998390436172,0.08918998390436172,1],"metallicFactor":1,"roughnessFactor":0.5},"emissiveFactor":[0.31235411763191223,0.31235411763191223,0.31235411763191223],"doubleSided":true,"name":"材质.004"}],"meshes":[{"primitives":[{"mode":4,"attributes":{"POSITION":0,"NORMAL":1,"TEXCOORD_0":2},"indices":3,"material":0}]},{"primitives":[{"mode":4,"attributes":{"POSITION":4,"NORMAL":5,"TEXCOORD_0":6},"indices":7,"material":1}]},{"primitives":[{"mode":4,"attributes":{"POSITION":8,"NORMAL":9,"TEXCOORD_0":10},"indices":11,"material":2}]}]}