{"asset":{"version":"2.0","generator":"THREE.GLTFExporter"},"scenes":[{"nodes":[1]}],"scene":0,"nodes":[{"name":"L2_WaiQiang_12","mesh":0},{"children":[0]}],"bufferViews":[{"buffer":0,"byteOffset":0,"byteLength":6468,"target":34962,"byteStride":12},{"buffer":0,"byteOffset":6468,"byteLength":6468,"target":34962,"byteStride":12},{"buffer":0,"byteOffset":12936,"byteLength":4312,"target":34962,"byteStride":8},{"buffer":0,"byteOffset":17248,"byteLength":4312,"target":34962,"byteStride":8},{"buffer":0,"byteOffset":21560,"byteLength":4512,"target":34963}],"buffers":[{"byteLength":26072,"uri":"data:application/octet-stream;base64,"}],"accessors":[{"bufferView":0,"componentType":5126,"count":539,"max":[13.033407211303711,2.4248623847961426,17.124156951904297],"min":[-13.032764434814453,-4.172686576843262,-17.1241455078125],"type":"VEC3"},{"bufferView":1,"componentType":5126,"count":539,"max":[1,0.040699414908885956,1],"min":[-1,-1,-1],"type":"VEC3"},{"bufferView":2,"componentType":5126,"count":539,"max":[4.069705009460449,2.1662814617156982],"min":[-3.0697052478790283,-1.1654431819915771],"type":"VEC2"},{"bufferView":3,"componentType":5126,"count":539,"max":[0.9963285326957703,0.9994999766349792],"min":[0.0005000000237487257,0.000500023365020752],"type":"VEC2"},{"bufferView":4,"componentType":5125,"count":1128,"max":[538],"min":[0],"type":"SCALAR"}],"materials":[{"pbrMetallicRoughness":{"metallicFactor":0,"roughnessFactor":1,"baseColorTexture":{"index":0}},"occlusionTexture":{"index":1,"texCoord":1},"doubleSided":true,"name":"NeiBu_02"}],"textures":[{"sampler":0,"source":0,"name":"Image_9"},{"sampler":1,"source":1,"name":"Image_29"}],"samplers":[{"magFilter":9729,"minFilter":9987,"wrapS":10497,"wrapT":10497},{"magFilter":9729,"minFilter":9987,"wrapS":10497,"wrapT":10497}],"images":[{"mimeType":"image/jpeg","uri":"data:image/jpeg;base64,"},{"mimeType":"image/jpeg","uri":"data:image/jpeg;base64,"}],"meshes":[{"primitives":[{"mode":4,"attributes":{"POSITION":0,"NORMAL":1,"TEXCOORD_0":2,"TEXCOORD_1":3},"indices":4,"material":0}]}]}