{"asset":{"version":"2.0","generator":"THREE.GLTFExporter"},"scenes":[{"nodes":[1]}],"scene":0,"nodes":[{"name":"L2_WaiQiang_7","mesh":0},{"children":[0]}],"bufferViews":[{"buffer":0,"byteOffset":0,"byteLength":264,"target":34962,"byteStride":12},{"buffer":0,"byteOffset":264,"byteLength":264,"target":34962,"byteStride":12},{"buffer":0,"byteOffset":528,"byteLength":176,"target":34962,"byteStride":8},{"buffer":0,"byteOffset":704,"byteLength":176,"target":34962,"byteStride":8},{"buffer":0,"byteOffset":880,"byteLength":120,"target":34963}],"buffers":[{"byteLength":1000,"uri":"data:application/octet-stream;base64,"}],"accessors":[{"bufferView":0,"componentType":5126,"count":22,"max":[-1.6283721923828125,-3.3199000358581543,-17.211997985839844],"min":[-2.2064876556396484,-3.6663882732391357,-17.239768981933594],"type":"VEC3"},{"bufferView":1,"componentType":5126,"count":22,"max":[1,1,0],"min":[-1,-1,-1],"type":"VEC3"},{"bufferView":2,"componentType":5126,"count":22,"max":[1,1],"min":[0,0],"type":"VEC2"},{"bufferView":3,"componentType":5126,"count":22,"max":[0.4905022382736206,0.8513591885566711],"min":[0.176097109913826,0.021256685256958008],"type":"VEC2"},{"bufferView":4,"componentType":5125,"count":30,"max":[21],"min":[0],"type":"SCALAR"}],"materials":[{"pbrMetallicRoughness":{"metallicFactor":0,"roughnessFactor":0,"baseColorTexture":{"index":0}},"occlusionTexture":{"index":1,"texCoord":1},"doubleSided":true,"name":"PaiZhi_04"}],"textures":[{"sampler":0,"source":0,"name":"Image_24"},{"sampler":1,"source":1,"name":"Image_17"}],"samplers":[{"magFilter":9729,"minFilter":9987,"wrapS":10497,"wrapT":10497},{"magFilter":9729,"minFilter":9987,"wrapS":10497,"wrapT":10497}],"images":[{"mimeType":"image/jpeg","uri":"data:image/jpeg;base64,"},{"mimeType":"image/jpeg","uri":"data:image/jpeg;base64,"}],"meshes":[{"primitives":[{"mode":4,"attributes":{"POSITION":0,"NORMAL":1,"TEXCOORD_0":2,"TEXCOORD_1":3},"indices":4,"material":0}]}]}