{"asset":{"version":"2.0","generator":"THREE.GLTFExporter"},"scenes":[{"nodes":[1]}],"scene":0,"nodes":[{"name":"L2_WaiQiang_3","mesh":0},{"children":[0]}],"bufferViews":[{"buffer":0,"byteOffset":0,"byteLength":384,"target":34962,"byteStride":12},{"buffer":0,"byteOffset":384,"byteLength":384,"target":34962,"byteStride":12},{"buffer":0,"byteOffset":768,"byteLength":256,"target":34962,"byteStride":8},{"buffer":0,"byteOffset":1024,"byteLength":256,"target":34962,"byteStride":8},{"buffer":0,"byteOffset":1280,"byteLength":192,"target":34963}],"buffers":[{"byteLength":1472,"uri":"data:application/octet-stream;base64,"}],"accessors":[{"bufferView":0,"componentType":5126,"count":32,"max":[13.077088356018066,-2.7519946098327637,17.189565658569336],"min":[-13.076064109802246,-4.172654628753662,-17.189565658569336],"type":"VEC3"},{"bufferView":1,"componentType":5126,"count":32,"max":[1,0,1],"min":[-1,0,-1],"type":"VEC3"},{"bufferView":2,"componentType":5126,"count":32,"max":[1,1.0000019073486328],"min":[-0.0000019073486328125,0],"type":"VEC2"},{"bufferView":3,"componentType":5126,"count":32,"max":[0.9520541429519653,0.8431148529052734],"min":[0.46961262822151184,0.40072953701019287],"type":"VEC2"},{"bufferView":4,"componentType":5125,"count":48,"max":[31],"min":[0],"type":"SCALAR"}],"materials":[{"pbrMetallicRoughness":{"metallicFactor":0.5,"roughnessFactor":0,"baseColorTexture":{"index":0}},"occlusionTexture":{"index":1,"texCoord":1},"doubleSided":true,"name":"L2_05"}],"textures":[{"sampler":0,"source":0,"name":"Image_20"},{"sampler":1,"source":1,"name":"Image_17"}],"samplers":[{"magFilter":9729,"minFilter":9987,"wrapS":10497,"wrapT":10497},{"magFilter":9729,"minFilter":9987,"wrapS":10497,"wrapT":10497}],"images":[{"mimeType":"image/jpeg","uri":"data:image/jpeg;base64,"},{"mimeType":"image/jpeg","uri":"data:image/jpeg;base64,"}],"meshes":[{"primitives":[{"mode":4,"attributes":{"POSITION":0,"NORMAL":1,"TEXCOORD_0":2,"TEXCOORD_1":3},"indices":4,"material":0}]}]}