{"asset":{"version":"2.0","generator":"THREE.GLTFExporter"},"scenes":[{"nodes":[1]}],"scene":0,"nodes":[{"name":"L2_WaiQiang_8","mesh":0},{"children":[0]}],"bufferViews":[{"buffer":0,"byteOffset":0,"byteLength":768,"target":34962,"byteStride":12},{"buffer":0,"byteOffset":768,"byteLength":768,"target":34962,"byteStride":12},{"buffer":0,"byteOffset":1536,"byteLength":512,"target":34962,"byteStride":8},{"buffer":0,"byteOffset":2048,"byteLength":512,"target":34962,"byteStride":8},{"buffer":0,"byteOffset":2560,"byteLength":360,"target":34963}],"buffers":[{"byteLength":2920,"uri":"data:application/octet-stream;base64,"}],"accessors":[{"bufferView":0,"componentType":5126,"count":64,"max":[1.7270660400390625,-2.8410658836364746,-17.212060928344727],"min":[-1.6107368469238281,-3.3143441677093506,-17.239768981933594],"type":"VEC3"},{"bufferView":1,"componentType":5126,"count":64,"max":[1,1,0],"min":[-1,-1,-1],"type":"VEC3"},{"bufferView":2,"componentType":5126,"count":64,"max":[1.0062828063964844,1.000601053237915],"min":[-0.006282925605773926,0.0018823742866516113],"type":"VEC2"},{"bufferView":3,"componentType":5126,"count":64,"max":[0.5440130233764648,0.7772887945175171],"min":[0.3914271593093872,0.003972887992858887],"type":"VEC2"},{"bufferView":4,"componentType":5125,"count":90,"max":[63],"min":[0],"type":"SCALAR"}],"materials":[{"pbrMetallicRoughness":{"metallicFactor":0.30000001192092896,"roughnessFactor":0.4000000059604645,"baseColorTexture":{"index":0}},"occlusionTexture":{"index":1,"texCoord":1},"doubleSided":true,"name":"PaiZhi_02"}],"textures":[{"sampler":0,"source":0,"name":"Image_25"},{"sampler":1,"source":1,"name":"Image_17"}],"samplers":[{"magFilter":9729,"minFilter":9987,"wrapS":10497,"wrapT":10497},{"magFilter":9729,"minFilter":9987,"wrapS":10497,"wrapT":10497}],"images":[{"mimeType":"image/jpeg","uri":"data:image/jpeg;base64,"},{"mimeType":"image/jpeg","uri":"data:image/jpeg;base64,"}],"meshes":[{"primitives":[{"mode":4,"attributes":{"POSITION":0,"NORMAL":1,"TEXCOORD_0":2,"TEXCOORD_1":3},"indices":4,"material":0}]}]}