{"asset":{"version":"2.0","generator":"THREE.GLTFExporter"},"scenes":[{"nodes":[1]}],"scene":0,"nodes":[{"name":"L2_WaiQiang_4","mesh":0},{"children":[0]}],"bufferViews":[{"buffer":0,"byteOffset":0,"byteLength":334896,"target":34962,"byteStride":12},{"buffer":0,"byteOffset":334896,"byteLength":334896,"target":34962,"byteStride":12},{"buffer":0,"byteOffset":669792,"byteLength":223264,"target":34962,"byteStride":8},{"buffer":0,"byteOffset":893056,"byteLength":223264,"target":34962,"byteStride":8},{"buffer":0,"byteOffset":1116320,"byteLength":194304,"target":34963}],"buffers":[{"byteLength":1310624,"uri":"data:application/octet-stream;base64,"}],"accessors":[{"bufferView":0,"componentType":5126,"count":27908,"max":[13.289630889892578,1.31524658203125,17.47433090209961],"min":[-13.246866226196289,-1.394038200378418,-17.44794464111328],"type":"VEC3"},{"bufferView":1,"componentType":5126,"count":27908,"max":[1,1,1],"min":[-1,-1,-1],"type":"VEC3"},{"bufferView":2,"componentType":5126,"count":27908,"max":[4.998264789581299,1.7744667530059814],"min":[-3.998267650604248,-0.7740015983581543],"type":"VEC2"},{"bufferView":3,"componentType":5126,"count":27908,"max":[0.999036967754364,0.8679168224334717],"min":[0.07045537978410721,0.0023744702339172363],"type":"VEC2"},{"bufferView":4,"componentType":5125,"count":48576,"max":[27907],"min":[0],"type":"SCALAR"}],"materials":[{"pbrMetallicRoughness":{"metallicFactor":0.800000011920929,"roughnessFactor":0.30000001192092896,"baseColorTexture":{"index":0}},"occlusionTexture":{"index":1,"texCoord":1},"doubleSided":true,"name":"ChuangKuang_L2"}],"textures":[{"sampler":0,"source":0,"name":"Image_21"},{"sampler":1,"source":1,"name":"Image_17"}],"samplers":[{"magFilter":9729,"minFilter":9987,"wrapS":10497,"wrapT":10497},{"magFilter":9729,"minFilter":9987,"wrapS":10497,"wrapT":10497}],"images":[{"mimeType":"image/jpeg","uri":"data:image/jpeg;base64,"},{"mimeType":"image/jpeg","uri":"data:image/jpeg;base64,"}],"meshes":[{"primitives":[{"mode":4,"attributes":{"POSITION":0,"NORMAL":1,"TEXCOORD_0":2,"TEXCOORD_1":3},"indices":4,"material":0}]}]}