{"asset":{"version":"2.0","generator":"THREE.GLTFExporter"},"scenes":[{"nodes":[1]}],"scene":0,"nodes":[{"name":"L2_WaiQiang_5","mesh":0},{"children":[0]}],"bufferViews":[{"buffer":0,"byteOffset":0,"byteLength":4464,"target":34962,"byteStride":12},{"buffer":0,"byteOffset":4464,"byteLength":4464,"target":34962,"byteStride":12},{"buffer":0,"byteOffset":8928,"byteLength":2976,"target":34962,"byteStride":8},{"buffer":0,"byteOffset":11904,"byteLength":2976,"target":34962,"byteStride":8},{"buffer":0,"byteOffset":14880,"byteLength":1920,"target":34963}],"buffers":[{"byteLength":16800,"uri":"data:application/octet-stream;base64,"}],"accessors":[{"bufferView":0,"componentType":5126,"count":372,"max":[13.407266616821289,2.2199840545654297,17.66572380065918],"min":[-13.407800674438477,1.9806022644042969,-17.665727615356445],"type":"VEC3"},{"bufferView":1,"componentType":5126,"count":372,"max":[1,1,1],"min":[-1,-1,-1],"type":"VEC3"},{"bufferView":2,"componentType":5126,"count":372,"max":[1.019106149673462,0.5173144340515137],"min":[-0.01910609006881714,-0.005975008010864258],"type":"VEC2"},{"bufferView":3,"componentType":5126,"count":372,"max":[0.9611617922782898,0.8513591885566711],"min":[0.2597464323043823,0.0033237338066101074],"type":"VEC2"},{"bufferView":4,"componentType":5125,"count":480,"max":[371],"min":[0],"type":"SCALAR"}],"materials":[{"pbrMetallicRoughness":{"metallicFactor":0,"roughnessFactor":0.4000000059604645,"baseColorTexture":{"index":0}},"occlusionTexture":{"index":1,"texCoord":1},"doubleSided":true,"name":"ShangGe"}],"textures":[{"sampler":0,"source":0,"name":"Image_22"},{"sampler":1,"source":1,"name":"Image_17"}],"samplers":[{"magFilter":9729,"minFilter":9987,"wrapS":10497,"wrapT":10497},{"magFilter":9729,"minFilter":9987,"wrapS":10497,"wrapT":10497}],"images":[{"mimeType":"image/jpeg","uri":"data:image/jpeg;base64,"},{"mimeType":"image/jpeg","uri":"data:image/jpeg;base64,"}],"meshes":[{"primitives":[{"mode":4,"attributes":{"POSITION":0,"NORMAL":1,"TEXCOORD_0":2,"TEXCOORD_1":3},"indices":4,"material":0}]}]}