{"asset":{"version":"2.0","generator":"THREE.GLTFExporter"},"scenes":[{"nodes":[1]}],"scene":0,"nodes":[{"name":"L2_WaiQiang_1","mesh":0},{"children":[0]}],"bufferViews":[{"buffer":0,"byteOffset":0,"byteLength":25632,"target":34962,"byteStride":12},{"buffer":0,"byteOffset":25632,"byteLength":25632,"target":34962,"byteStride":12},{"buffer":0,"byteOffset":51264,"byteLength":17088,"target":34962,"byteStride":8},{"buffer":0,"byteOffset":68352,"byteLength":17088,"target":34962,"byteStride":8},{"buffer":0,"byteOffset":85440,"byteLength":14052,"target":34963}],"buffers":[{"byteLength":99492,"uri":"data:application/octet-stream;base64,"}],"accessors":[{"bufferView":0,"componentType":5126,"count":2136,"max":[13.383993148803711,4.173997402191162,17.64261245727539],"min":[-13.383064270019531,-2.3346962928771973,-17.64260482788086],"type":"VEC3"},{"bufferView":1,"componentType":5126,"count":2136,"max":[1,1,1],"min":[-1,-1,-1],"type":"VEC3"},{"bufferView":2,"componentType":5126,"count":2136,"max":[10.36983871459961,10.36983871459961],"min":[-9.36983871459961,-9.36983871459961],"type":"VEC2"},{"bufferView":3,"componentType":5126,"count":2136,"max":[0.9987760782241821,0.9994868040084839],"min":[0.0005000000237487257,0.0026734471321105957],"type":"VEC2"},{"bufferView":4,"componentType":5125,"count":3513,"max":[2135],"min":[0],"type":"SCALAR"}],"materials":[{"pbrMetallicRoughness":{"metallicFactor":0,"roughnessFactor":1,"baseColorTexture":{"index":0}},"occlusionTexture":{"index":1,"texCoord":1},"doubleSided":true,"name":"L2_03"}],"textures":[{"sampler":0,"source":0,"name":"Image_18"},{"sampler":1,"source":1,"name":"Image_17"}],"samplers":[{"magFilter":9729,"minFilter":9987,"wrapS":10497,"wrapT":10497},{"magFilter":9729,"minFilter":9987,"wrapS":10497,"wrapT":10497}],"images":[{"mimeType":"image/jpeg","uri":"data:image/jpeg;base64,"},{"mimeType":"image/jpeg","uri":"data:image/jpeg;base64,"}],"meshes":[{"primitives":[{"mode":4,"attributes":{"POSITION":0,"NORMAL":1,"TEXCOORD_0":2,"TEXCOORD_1":3},"indices":4,"material":0}]}]}