{"asset":{"version":"2.0","generator":"THREE.GLTFExporter"},"scenes":[{"nodes":[1]}],"scene":0,"nodes":[{"name":"L2_WaiQiang_10","mesh":0},{"children":[0]}],"bufferViews":[{"buffer":0,"byteOffset":0,"byteLength":4056,"target":34962,"byteStride":12},{"buffer":0,"byteOffset":4056,"byteLength":4056,"target":34962,"byteStride":12},{"buffer":0,"byteOffset":8112,"byteLength":2704,"target":34962,"byteStride":8},{"buffer":0,"byteOffset":10816,"byteLength":2704,"target":34962,"byteStride":8},{"buffer":0,"byteOffset":13520,"byteLength":1728,"target":34963}],"buffers":[{"byteLength":15248,"uri":"data:application/octet-stream;base64,"}],"accessors":[{"bufferView":0,"componentType":5126,"count":338,"max":[13.095009803771973,-2.3369579315185547,17.183603286743164],"min":[-13.068570137023926,-4.174834728240967,-17.11017417907715],"type":"VEC3"},{"bufferView":1,"componentType":5126,"count":338,"max":[1,1,1],"min":[-1,-1,-1],"type":"VEC3"},{"bufferView":2,"componentType":5126,"count":338,"max":[1,1],"min":[0,0],"type":"VEC2"},{"bufferView":3,"componentType":5126,"count":338,"max":[0.9881361126899719,0.9871549606323242],"min":[0.12395068258047104,0.003050565719604492],"type":"VEC2"},{"bufferView":4,"componentType":5125,"count":432,"max":[337],"min":[0],"type":"SCALAR"}],"materials":[{"pbrMetallicRoughness":{"metallicFactor":0.5,"roughnessFactor":0,"baseColorTexture":{"index":0}},"doubleSided":true,"name":"L2_04"}],"textures":[{"sampler":0,"source":0,"name":"Image_27"}],"samplers":[{"magFilter":9729,"minFilter":9987,"wrapS":10497,"wrapT":10497}],"images":[{"mimeType":"image/jpeg","uri":"data:image/jpeg;base64,"}],"meshes":[{"primitives":[{"mode":4,"attributes":{"POSITION":0,"NORMAL":1,"TEXCOORD_0":2,"TEXCOORD_1":3},"indices":4,"material":0}]}]}