{"asset":{"version":"2.0","generator":"THREE.GLTFExporter"},"scenes":[{"nodes":[1]}],"scene":0,"nodes":[{"name":"L2_WaiQiang_11","mesh":0},{"children":[0]}],"bufferViews":[{"buffer":0,"byteOffset":0,"byteLength":6024,"target":34962,"byteStride":12},{"buffer":0,"byteOffset":6024,"byteLength":6024,"target":34962,"byteStride":12},{"buffer":0,"byteOffset":12048,"byteLength":4016,"target":34962,"byteStride":8},{"buffer":0,"byteOffset":16064,"byteLength":4016,"target":34962,"byteStride":8},{"buffer":0,"byteOffset":20080,"byteLength":2808,"target":34963}],"buffers":[{"byteLength":22888,"uri":"data:application/octet-stream;base64,"}],"accessors":[{"bufferView":0,"componentType":5126,"count":502,"max":[12.960979461669922,2.416694164276123,17.10304069519043],"min":[-12.958639144897461,1.5550713539123535,-17.0760555267334],"type":"VEC3"},{"bufferView":1,"componentType":5126,"count":502,"max":[1,0,1],"min":[-1,-1,-1],"type":"VEC3"},{"bufferView":2,"componentType":5126,"count":502,"max":[19.328153610229492,19.328153610229492],"min":[-18.328153610229492,-18.328153610229492],"type":"VEC2"},{"bufferView":3,"componentType":5126,"count":502,"max":[0.999500036239624,0.9994762539863586],"min":[0.0005000000237487257,0.007550954818725586],"type":"VEC2"},{"bufferView":4,"componentType":5125,"count":702,"max":[501],"min":[0],"type":"SCALAR"}],"materials":[{"pbrMetallicRoughness":{"metallicFactor":0,"roughnessFactor":1,"baseColorTexture":{"index":0}},"occlusionTexture":{"index":1,"texCoord":1},"doubleSided":true,"name":"L2_NeiZhu"}],"textures":[{"sampler":0,"source":0,"name":"Image_9"},{"sampler":1,"source":1,"name":"Image_28"}],"samplers":[{"magFilter":9729,"minFilter":9987,"wrapS":10497,"wrapT":10497},{"magFilter":9729,"minFilter":9987,"wrapS":10497,"wrapT":10497}],"images":[{"mimeType":"image/jpeg","uri":"data:image/jpeg;base64,"},{"mimeType":"image/jpeg","uri":"data:image/jpeg;base64,"}],"meshes":[{"primitives":[{"mode":4,"attributes":{"POSITION":0,"NORMAL":1,"TEXCOORD_0":2,"TEXCOORD_1":3},"indices":4,"material":0}]}]}